<mxfile host="app.diagrams.net" modified="2023-04-09T16:04:19.646Z" agent="Mozilla/5.0 (X11; Linux x86_64) AppleWebKit/537.36 (KHTML, like Gecko) Chrome/111.0.0.0 Safari/537.36" etag="N4LHuGcGLHWogwqOLTJl" version="21.1.5" type="github">
  <diagram name="Page-1" id="gPizGGay1G5MN5bIR9xc">
    <mxGraphModel dx="1378" dy="811" grid="1" gridSize="10" guides="1" tooltips="1" connect="1" arrows="1" fold="1" page="1" pageScale="1" pageWidth="827" pageHeight="1169" math="0" shadow="0">
      <root>
        <mxCell id="0" />
        <mxCell id="1" parent="0" />
        <mxCell id="T-FzQU9PvqR5m4S88ow1-13" value="&lt;h1&gt;Data Warehouse - Delta Lake, Spark, Trino, Minio, Superset&lt;/h1&gt;&lt;p&gt;Data from various sources in the organisation ( files, real-time streams, database (cdc) ) being etl&#39;d into delta lake.&amp;nbsp;&lt;/p&gt;&lt;p&gt;Delta lake is supported on top of minio - S3 compliant object storage.&lt;/p&gt;&lt;p&gt;Trino - provides the SQL query for big data ( Hive Standalone Metastore - provides the table metadata to work with in query engine)&lt;/p&gt;&lt;p&gt;Superset - provides the BI interface for business to play with the datasets exposed via Trino.&lt;/p&gt;" style="text;html=1;strokeColor=none;fillColor=none;spacing=5;spacingTop=-20;whiteSpace=wrap;overflow=hidden;rounded=0;" vertex="1" parent="1">
          <mxGeometry x="30" y="20" width="740" height="160" as="geometry" />
        </mxCell>
        <mxCell id="T-FzQU9PvqR5m4S88ow1-14" value="" style="group" vertex="1" connectable="0" parent="1">
          <mxGeometry x="40" y="200" width="760" height="306" as="geometry" />
        </mxCell>
        <mxCell id="T-FzQU9PvqR5m4S88ow1-3" value="" style="group" vertex="1" connectable="0" parent="T-FzQU9PvqR5m4S88ow1-14">
          <mxGeometry x="210" width="550" height="300" as="geometry" />
        </mxCell>
        <mxCell id="HHWHie1BE0_L4CsB-OEg-1" value="minio - s3 compliant - object storage" style="rounded=1;whiteSpace=wrap;html=1;" parent="T-FzQU9PvqR5m4S88ow1-3" vertex="1">
          <mxGeometry x="190" y="236" width="170" height="60" as="geometry" />
        </mxCell>
        <mxCell id="HHWHie1BE0_L4CsB-OEg-2" value="Delta Lake&amp;nbsp;" style="rounded=1;whiteSpace=wrap;html=1;" parent="T-FzQU9PvqR5m4S88ow1-3" vertex="1">
          <mxGeometry x="190" y="168" width="170" height="60" as="geometry" />
        </mxCell>
        <mxCell id="HHWHie1BE0_L4CsB-OEg-3" value="Apache Spark" style="rounded=1;whiteSpace=wrap;html=1;" parent="T-FzQU9PvqR5m4S88ow1-3" vertex="1">
          <mxGeometry y="100" width="180" height="200" as="geometry" />
        </mxCell>
        <mxCell id="HHWHie1BE0_L4CsB-OEg-4" value="Trino - SQL Query Engine" style="rounded=1;whiteSpace=wrap;html=1;" parent="T-FzQU9PvqR5m4S88ow1-3" vertex="1">
          <mxGeometry x="367" y="100" width="180" height="200" as="geometry" />
        </mxCell>
        <mxCell id="HHWHie1BE0_L4CsB-OEg-5" value="Superset - BI&amp;nbsp;" style="rounded=1;whiteSpace=wrap;html=1;" parent="T-FzQU9PvqR5m4S88ow1-3" vertex="1">
          <mxGeometry x="190" y="30" width="360" height="60" as="geometry" />
        </mxCell>
        <mxCell id="T-FzQU9PvqR5m4S88ow1-2" value="Hive Standalone Metastore" style="rounded=1;whiteSpace=wrap;html=1;" vertex="1" parent="T-FzQU9PvqR5m4S88ow1-3">
          <mxGeometry x="190" y="100" width="170" height="60" as="geometry" />
        </mxCell>
        <mxCell id="T-FzQU9PvqR5m4S88ow1-10" style="edgeStyle=orthogonalEdgeStyle;rounded=0;orthogonalLoop=1;jettySize=auto;html=1;exitX=1;exitY=0.5;exitDx=0;exitDy=0;entryX=0;entryY=0.45;entryDx=0;entryDy=0;entryPerimeter=0;" edge="1" parent="T-FzQU9PvqR5m4S88ow1-14" source="T-FzQU9PvqR5m4S88ow1-6" target="HHWHie1BE0_L4CsB-OEg-3">
          <mxGeometry relative="1" as="geometry" />
        </mxCell>
        <mxCell id="T-FzQU9PvqR5m4S88ow1-12" style="edgeStyle=orthogonalEdgeStyle;rounded=0;orthogonalLoop=1;jettySize=auto;html=1;entryX=-0.006;entryY=0.4;entryDx=0;entryDy=0;entryPerimeter=0;" edge="1" parent="T-FzQU9PvqR5m4S88ow1-14" source="T-FzQU9PvqR5m4S88ow1-8" target="HHWHie1BE0_L4CsB-OEg-3">
          <mxGeometry relative="1" as="geometry" />
        </mxCell>
        <mxCell id="T-FzQU9PvqR5m4S88ow1-8" value="" style="shape=image;html=1;verticalAlign=top;verticalLabelPosition=bottom;labelBackgroundColor=#ffffff;imageAspect=0;aspect=fixed;image=https://cdn1.iconfinder.com/data/icons/100-basic-for-user-interface/32/73-files-128.png" vertex="1" parent="T-FzQU9PvqR5m4S88ow1-14">
          <mxGeometry y="100" width="60" height="60" as="geometry" />
        </mxCell>
        <mxCell id="T-FzQU9PvqR5m4S88ow1-11" style="edgeStyle=orthogonalEdgeStyle;rounded=0;orthogonalLoop=1;jettySize=auto;html=1;" edge="1" parent="T-FzQU9PvqR5m4S88ow1-14" source="T-FzQU9PvqR5m4S88ow1-9" target="HHWHie1BE0_L4CsB-OEg-3">
          <mxGeometry relative="1" as="geometry" />
        </mxCell>
        <mxCell id="T-FzQU9PvqR5m4S88ow1-9" value="" style="sketch=0;outlineConnect=0;fontColor=#232F3E;gradientColor=none;fillColor=#232F3D;strokeColor=none;dashed=0;verticalLabelPosition=bottom;verticalAlign=top;align=center;html=1;fontSize=12;fontStyle=0;aspect=fixed;pointerEvents=1;shape=mxgraph.aws4.generic_database;" vertex="1" parent="T-FzQU9PvqR5m4S88ow1-14">
          <mxGeometry x="1" y="228" width="59" height="78" as="geometry" />
        </mxCell>
        <mxCell id="T-FzQU9PvqR5m4S88ow1-6" value="" style="shape=image;verticalLabelPosition=bottom;labelBackgroundColor=default;verticalAlign=top;aspect=fixed;imageAspect=0;image=data:image/png,iVBORw0KGgoAAAANSUhEUgAAAT4AAACfCAMAAABX0UX9AAAAilBMVEX///8jHyAAAAAJAAAeGRrT09NDQEEXEhMVDhAgHB29vb2cm5sOBgmtra10cnMbFhfm5ubt7e319fVIRkb4+PjY2NiVlJRbWVoMAAXPz8/i4uKPjo5UUlLExMSrqqonIySHhoaioaE2MzS3trc9OjsvLC1qaGl8e3tgXl+BgIBXVVV4d3dvbm5NS0zfs+WxAAAN9ElEQVR4nO1daXuyOhCVgAIWxd3iXq1Va/v//94VJZNJyLDoq9ZLzpc+RYR4SDL7UKsZGBgYGBgYGBgYGBg8Eb3hvDmvd589jJdEdFiyC9z2/NmDeTVstszzrQt8l3kfzx7QK2HyyRwLw2d+9OxBvQwWCnkXAqfPHtaLYMVS5MVgX88e2EtgqmfPsmzDXz42FHun+WfWbx66NHsn/oz8yMFviMSFZzMb9Jf4gPXs4f1xzNHkY96h1dxMl0wQyIz+l4k+qCwOayXHmqEr5uNTR/fXMYHJ5/jI1u0Df8zYbxkYBXyaMclTsOWT0v151tBeAbB22UY6PuSz0refNLKXALC0VD4Yc4HMOk8Z2EsAtr5gpHyysc3ml4uIUSQBsXZL+02DGtL62FD5pMc/eTeaHwlBX135BOizF08Z2UugDvQ1lU9A9Coi2QAB/AXuTvnkgyuExmuQATA62ED+YMvtXtZ7zsheAnuu3nkr6XgLFMLtcwb2GmjZMP3w7idMYYVWAwk94a9iQsGLhMsqpdEIDMhPqoO2J/gbX7SXSVuw5/S136qPxl4cUG8cmtUmsYPcpSHz9u0vi7nikFbuvoUsCM8MOycS25OHD/oPYfUuyLL80A2Rr95yx+kvLJiNT7Fc9lNl4bxMh8iBzbTW0vtlvnqaV2W3QifNB710J4GrOc9nb88Y+d9ARPHHUs6WCXmq6vCqECJNiks8pVLs9Wx6olbYNO5s7RQfgac6YWq1RqghjvNXZQE8YoE0sTym+hBO+JASEhQh7Xw+ftR/B70pY1yDdhk7aiIcA8Sew9h3+2vJhNJd6eUbY364kOH+6E0JCGqeqGpcVJXJTsiSVLSpakgMYMrMRYaw0FOGYtFXWfuLkThPU477C0Q2jJT4ItTGqkfUs+k7wNYoZ00iWh8xyL+LbPrWkJCgFH5AiluldZc8+vgkC1U3woaMNz0Y3c5TMyIy6QPPVqAGfrsFQsKDDse/HDCgt9k1bMbYOhkrx0NdQZn0Teg5BsTSqdAR4/iH44WhfZ101nhr4c7dLb/ZQ1XRTPqGZD5HEfp4QPke6ZYj8O9y+hrOM3aTTL2PTnqBeElAu63uSF9bGENPpa/+djErvFWksTqAJE+1hiOSWHTtu9GHDfHn0dc87R/cKPNOBm161+Dmha9uX0euEBIiO8bd6OthN8az6Fu4TPYihyzlAP3iZ7zLa1QUhqiZCgh3o28Khrh/Er1JTP+x9M19nRM5UNylGxFRl9TjPteaw1/6Fnejz+IjD61Whz++h9LXJjzwPpuh6fQh/C1+gPjbw/GsVLZ70QfaqLNGRx9IX28teFHhAk/RFu8xPjgNojUKs2dEzO9Fnz6/83H0dYIMB/yJp7M06O7VaIjNjq15c4SrqINVxm3uRd8i2VF8Hx99GH1dbZRI4W/ENNFJ77RTBw4+Mytd4170JbqWFUpeoEfRN/Cz2Yvl2WaZjiNpkG0g3Zs+t42PPoq+b13QW+VPCBbHI08Lskunr6BvuBkdjrtpi07xqgmB5h7x0fL0decfq91u9TEv42RYyLW8/jlrinlEMNdnfbLw3NNnYgEI+jYtjg/ZiRhr8XbgeV5w2iOOFwa7i+Tci4TvxP9+JTu3MztfKlkBevom/PuthWy2d6bb00bkua4XMNZoyUNbkE5MSWO3HBauNvXJsHm6mE6cnPXANz1/7znsEfS9MTuBnOWxCKXd1mPj2M8V8bMvZs88/hcG6pw/+Mygr2vD95d4m57spSCtw4LzQ1gnZ9Mz+IjXor0VjyTqp1gK2eF8z6aGWp/lRjm09Ik2AFLV/3CbUkTdeGeFMgA7oS81kCyjbQCpUI6F2TukfpDPxtQjwJDK8JW2BQv5F/jsl8/hTl9t+RLY+VuMjr5IsIe9EB9aZeBkQ95GXwO8WgHaJzpbndbrbQf59K2yYtx1JtXk42s011LDITYtkGCqoU+kG0kdO3bE9spaw1vo24vKW+TwHhJ6m7vOpw/X3KddTREanRocqq/An/tVzKGbpq8LG07wXYC9eIycgSvoE5fF5smQzM17n85y6EO393R715tQ9zTWbNxsrRkVjlyk6dtCSQQWOx8kexY4B4C+MBRZNv7pn9BrEPQJiYdTFjMSxixvyb9A0LfKs1ahMiYdXCuNFH1Q7h9iW3+I2XOCywQP1B95oS/6HY/3n9wJud6Px+PvZBqo9CEZhcnoY/HuXm5mq4KEou8Tlj0Ro0D9cW4O8Kj0wVbkWFhRRYnCDlu/Rd3BoBuNlsoaQwXuhdRmJKPwJoW13oAdm5PeoDds7RULlaIPkUOsQXTGrQFwhb4DFC1hMYiXboD0qNp8KZk7iL4iRpuQUZJ2OUDZTVj8dX+kDYSgTxQOkalRULF1e/aPTB9sRb785MRexNry96WfVI6+LlyVrfBJImHMCeXZMceznaBPzGi3rT1BjO0flJRL9G20YlA6vlIvsEN+i1L0CXVZeSTAqu+ohi7eggn6mnBKqo8B/BwY8s0l5Zi+SCsGa6ith7tPXwF5N0rRB+pyIF9U/H7N3oW0knz6qPBsgVOKAtGHtiJ5ZF2xpLMCpeXoAxnlKZGYNqfV1k0NYc8S9M2fM/ucAeghTNEm4Wnp74a2kvRBgr4IZJSrpl5D3NXR3Uw8rPy9jzL477D3WcsGbEXqUwNFVK+GitTqwvQ5v/wXhFvlmnTG0wU7Pjn/lOQVtkNaOsyS27mE5xWGU5g+C/6GqnQQMSZ9m2rRouVf6H235pXVseJx/r3pwgc3YZYKeC548WJx+uCRpTiCGBM1d/LoE1aH9zirQ9B3TJ0DAyZyPUQujThWjD7LTdHHtT5qqoPJerXNuxQ2r0aRKAdBH9FzDO1t1FSflKeP/w0b6sX4ryebDfCthKIPeaS0wiPH41Jvbq7wuFjbX+BP+fId6HNAbbFXysWAPion8TuHPmQi6fx9eLn9Q3+fD9qdlFYRA+gjDOzyi5dFkNekCr8pp+9AjHids3jhCtqTJE+iv6S8zbGfp0gtKlKbocfJuzJyOn31Auj6UUZt5iP1bVn2Qnz9u6ZHnugoF+uYQayjkYp1FEghxkbbnpgRXJZRarywE9IskPTBlHVn0sVEOYD+ZsNc+tRImzhPH2lLbntzpG3wDomW0oz4SehJreoEsNmUsnmhV4McCxX06JtMgT+Gpk+N87qHTX1Yb06X2gBKEJseI70zPSgV5wWVNZS+9gE/VJtYICzwcg4rUc6DLwuCirC5XMIwx0hlGdjZWQYNOssgpRlk0FfbwaOV4rvAqjY2AN1oS9IHAtsP8Tl9SgNQmMlK9BjTSStA2rtg85/luAAV0tIRfk2N8ECe6JLeZvimh9VXMOhDeVM8A3miM/NkMrqQJL/X3ljFMqwyvQoKfWJGeEhjh6JDP22IYg9mSfpqM5BVSH8V/X80qsNMOBcz6evaV+b3+bfl98GMwI12iB7cl4/QjlKWvp7wMCKVUjTrT3WW/0KtgbKztPKyS8+LS5Nd+r7bzJtv12eXijJMNPaZyPiR1+9G0qPK0iekjoPa6WGPsvTtbh8nbuQkufW0WR7JoHJzm+vbK3ObkT9SzAi0Qk+aJhA4V/So0vTV2vw3Bui8vpg4ng0JcpOVrJrl5giWz6z3kLC6NrNezAjkMjqiRxkytl+NRqtvlpr6pekT9QuIjQl6KCfdf70bvU1/pO4WhejT13X473eu6/jh48QpIo7EVOgFgScW9A30iXmNpJKsxDrxzUDd8wvofQAlH/ExVUUOjFAYfRNKsYyfDufvCvoEVSEKeozJfcvfNvJcBhLmP1JN2/gBNW3Cp4M0V7KhlrNV8vvOKJ4aDh2QsO+qTymyLPrVXCMTw2R786Y6M/AOFZVTvh1gK1ffUCtWBW+jDy0SJNRn+tnOVleklz+8nveTzwjsu+qsNT/JtSdqdukZJQoTwMcieSpW2jf8ra7Kzk/oe1g1eZdpzTS1odZJC/zuoWto6PMK1HXsoZMKNtPqn4oP6SSEm+Q1snBzLwPacUr0MmjBYclM603fL80JYoRB0vJJd40ReL3xZdfaXgaDAC4gPefmL7O5xBXJxuBP/zf03dZJozSi6W8y/Nno7u1hOosv63Kz7e76QqSCfVxU93aTnpe3odeZPLCVSLfTue3FzkW7CCkOMtNF6IJs+iAurKSPmR5WCa7qoCaSN8k0y4ogp38fSp1F/ftAQla9f1+Z7pF90z1SQm8l9y7VSAG1d+nP3je9Sy9QFX2XHdMzMLNzbjoLpzLQ9W32grQE6WcUn1f3bYLFu4YHZGCpuku3VM96gr/q9vzPemNCShXpePo3JlT3VYLl3tcxmJn3dWCssL/fD10Xs+Nqst9a7N2XyWtX931F8ruKnK+jHKrTzauBeVcRoI2yOfYXa21yRG/K0mtz9dHeid1j/Yq/KeuW97QZ4LcE4mVq3hJYDFDopCT4mHdUFgLp6jRvSC0A837em2DeDn0TzLvJb4K+c2qM3j2Ct/83iKJf1bqgU1oMABMyvwKSISvsDsgHqHdqnOcbYt+V9SIXgKitkQUsCF6czmSgAoKPSiUKVJJX/e1h2SAqUURMyGx9meijShSu4TVDYM93nzq6Pw/cwtIODq3mZmrhrpxGac7GDKWmxoVqNq5HrXTiRSFIJfkqMkoNDC7Y0PxV+Y3jhUEU2Cv9lA0orIjakJt7B1UEC21tCF2lYSBj8qk2Z2G+8TKXwGYrNaL3jJevJKLDMilEcY/GUrsGcSP6ef224hADAwMDAwMDAwMDAwODa/EfkFPK26vFX+4AAAAASUVORK5CYII=;" vertex="1" parent="T-FzQU9PvqR5m4S88ow1-14">
          <mxGeometry y="170" width="80" height="40" as="geometry" />
        </mxCell>
        <mxCell id="T-FzQU9PvqR5m4S88ow1-29" value="" style="shape=image;verticalLabelPosition=bottom;labelBackgroundColor=default;verticalAlign=top;aspect=fixed;imageAspect=0;image=data:image/png,iVBORw0KGgoAAAANSUhEUgAAAT4AAACfCAMAAABX0UX9AAAAilBMVEX///8jHyAAAAAJAAAeGRrT09NDQEEXEhMVDhAgHB29vb2cm5sOBgmtra10cnMbFhfm5ubt7e319fVIRkb4+PjY2NiVlJRbWVoMAAXPz8/i4uKPjo5UUlLExMSrqqonIySHhoaioaE2MzS3trc9OjsvLC1qaGl8e3tgXl+BgIBXVVV4d3dvbm5NS0zfs+WxAAAN9ElEQVR4nO1daXuyOhCVgAIWxd3iXq1Va/v//94VJZNJyLDoq9ZLzpc+RYR4SDL7UKsZGBgYGBgYGBgYGBg8Eb3hvDmvd589jJdEdFiyC9z2/NmDeTVstszzrQt8l3kfzx7QK2HyyRwLw2d+9OxBvQwWCnkXAqfPHtaLYMVS5MVgX88e2EtgqmfPsmzDXz42FHun+WfWbx66NHsn/oz8yMFviMSFZzMb9Jf4gPXs4f1xzNHkY96h1dxMl0wQyIz+l4k+qCwOayXHmqEr5uNTR/fXMYHJ5/jI1u0Df8zYbxkYBXyaMclTsOWT0v151tBeAbB22UY6PuSz0refNLKXALC0VD4Yc4HMOk8Z2EsAtr5gpHyysc3ml4uIUSQBsXZL+02DGtL62FD5pMc/eTeaHwlBX135BOizF08Z2UugDvQ1lU9A9Coi2QAB/AXuTvnkgyuExmuQATA62ED+YMvtXtZ7zsheAnuu3nkr6XgLFMLtcwb2GmjZMP3w7idMYYVWAwk94a9iQsGLhMsqpdEIDMhPqoO2J/gbX7SXSVuw5/S136qPxl4cUG8cmtUmsYPcpSHz9u0vi7nikFbuvoUsCM8MOycS25OHD/oPYfUuyLL80A2Rr95yx+kvLJiNT7Fc9lNl4bxMh8iBzbTW0vtlvnqaV2W3QifNB710J4GrOc9nb88Y+d9ARPHHUs6WCXmq6vCqECJNiks8pVLs9Wx6olbYNO5s7RQfgac6YWq1RqghjvNXZQE8YoE0sTym+hBO+JASEhQh7Xw+ftR/B70pY1yDdhk7aiIcA8Sew9h3+2vJhNJd6eUbY364kOH+6E0JCGqeqGpcVJXJTsiSVLSpakgMYMrMRYaw0FOGYtFXWfuLkThPU477C0Q2jJT4ItTGqkfUs+k7wNYoZ00iWh8xyL+LbPrWkJCgFH5AiluldZc8+vgkC1U3woaMNz0Y3c5TMyIy6QPPVqAGfrsFQsKDDse/HDCgt9k1bMbYOhkrx0NdQZn0Teg5BsTSqdAR4/iH44WhfZ101nhr4c7dLb/ZQ1XRTPqGZD5HEfp4QPke6ZYj8O9y+hrOM3aTTL2PTnqBeElAu63uSF9bGENPpa/+djErvFWksTqAJE+1hiOSWHTtu9GHDfHn0dc87R/cKPNOBm161+Dmha9uX0euEBIiO8bd6OthN8az6Fu4TPYihyzlAP3iZ7zLa1QUhqiZCgh3o28Khrh/Er1JTP+x9M19nRM5UNylGxFRl9TjPteaw1/6Fnejz+IjD61Whz++h9LXJjzwPpuh6fQh/C1+gPjbw/GsVLZ70QfaqLNGRx9IX28teFHhAk/RFu8xPjgNojUKs2dEzO9Fnz6/83H0dYIMB/yJp7M06O7VaIjNjq15c4SrqINVxm3uRd8i2VF8Hx99GH1dbZRI4W/ENNFJ77RTBw4+Mytd4170JbqWFUpeoEfRN/Cz2Yvl2WaZjiNpkG0g3Zs+t42PPoq+b13QW+VPCBbHI08Lskunr6BvuBkdjrtpi07xqgmB5h7x0fL0decfq91u9TEv42RYyLW8/jlrinlEMNdnfbLw3NNnYgEI+jYtjg/ZiRhr8XbgeV5w2iOOFwa7i+Tci4TvxP9+JTu3MztfKlkBevom/PuthWy2d6bb00bkua4XMNZoyUNbkE5MSWO3HBauNvXJsHm6mE6cnPXANz1/7znsEfS9MTuBnOWxCKXd1mPj2M8V8bMvZs88/hcG6pw/+Mygr2vD95d4m57spSCtw4LzQ1gnZ9Mz+IjXor0VjyTqp1gK2eF8z6aGWp/lRjm09Ik2AFLV/3CbUkTdeGeFMgA7oS81kCyjbQCpUI6F2TukfpDPxtQjwJDK8JW2BQv5F/jsl8/hTl9t+RLY+VuMjr5IsIe9EB9aZeBkQ95GXwO8WgHaJzpbndbrbQf59K2yYtx1JtXk42s011LDITYtkGCqoU+kG0kdO3bE9spaw1vo24vKW+TwHhJ6m7vOpw/X3KddTREanRocqq/An/tVzKGbpq8LG07wXYC9eIycgSvoE5fF5smQzM17n85y6EO393R715tQ9zTWbNxsrRkVjlyk6dtCSQQWOx8kexY4B4C+MBRZNv7pn9BrEPQJiYdTFjMSxixvyb9A0LfKs1ahMiYdXCuNFH1Q7h9iW3+I2XOCywQP1B95oS/6HY/3n9wJud6Px+PvZBqo9CEZhcnoY/HuXm5mq4KEou8Tlj0Ro0D9cW4O8Kj0wVbkWFhRRYnCDlu/Rd3BoBuNlsoaQwXuhdRmJKPwJoW13oAdm5PeoDds7RULlaIPkUOsQXTGrQFwhb4DFC1hMYiXboD0qNp8KZk7iL4iRpuQUZJ2OUDZTVj8dX+kDYSgTxQOkalRULF1e/aPTB9sRb785MRexNry96WfVI6+LlyVrfBJImHMCeXZMceznaBPzGi3rT1BjO0flJRL9G20YlA6vlIvsEN+i1L0CXVZeSTAqu+ohi7eggn6mnBKqo8B/BwY8s0l5Zi+SCsGa6ith7tPXwF5N0rRB+pyIF9U/H7N3oW0knz6qPBsgVOKAtGHtiJ5ZF2xpLMCpeXoAxnlKZGYNqfV1k0NYc8S9M2fM/ucAeghTNEm4Wnp74a2kvRBgr4IZJSrpl5D3NXR3Uw8rPy9jzL477D3WcsGbEXqUwNFVK+GitTqwvQ5v/wXhFvlmnTG0wU7Pjn/lOQVtkNaOsyS27mE5xWGU5g+C/6GqnQQMSZ9m2rRouVf6H235pXVseJx/r3pwgc3YZYKeC548WJx+uCRpTiCGBM1d/LoE1aH9zirQ9B3TJ0DAyZyPUQujThWjD7LTdHHtT5qqoPJerXNuxQ2r0aRKAdBH9FzDO1t1FSflKeP/w0b6sX4ryebDfCthKIPeaS0wiPH41Jvbq7wuFjbX+BP+fId6HNAbbFXysWAPion8TuHPmQi6fx9eLn9Q3+fD9qdlFYRA+gjDOzyi5dFkNekCr8pp+9AjHids3jhCtqTJE+iv6S8zbGfp0gtKlKbocfJuzJyOn31Auj6UUZt5iP1bVn2Qnz9u6ZHnugoF+uYQayjkYp1FEghxkbbnpgRXJZRarywE9IskPTBlHVn0sVEOYD+ZsNc+tRImzhPH2lLbntzpG3wDomW0oz4SehJreoEsNmUsnmhV4McCxX06JtMgT+Gpk+N87qHTX1Yb06X2gBKEJseI70zPSgV5wWVNZS+9gE/VJtYICzwcg4rUc6DLwuCirC5XMIwx0hlGdjZWQYNOssgpRlk0FfbwaOV4rvAqjY2AN1oS9IHAtsP8Tl9SgNQmMlK9BjTSStA2rtg85/luAAV0tIRfk2N8ECe6JLeZvimh9VXMOhDeVM8A3miM/NkMrqQJL/X3ljFMqwyvQoKfWJGeEhjh6JDP22IYg9mSfpqM5BVSH8V/X80qsNMOBcz6evaV+b3+bfl98GMwI12iB7cl4/QjlKWvp7wMCKVUjTrT3WW/0KtgbKztPKyS8+LS5Nd+r7bzJtv12eXijJMNPaZyPiR1+9G0qPK0iekjoPa6WGPsvTtbh8nbuQkufW0WR7JoHJzm+vbK3ObkT9SzAi0Qk+aJhA4V/So0vTV2vw3Bui8vpg4ng0JcpOVrJrl5giWz6z3kLC6NrNezAjkMjqiRxkytl+NRqtvlpr6pekT9QuIjQl6KCfdf70bvU1/pO4WhejT13X473eu6/jh48QpIo7EVOgFgScW9A30iXmNpJKsxDrxzUDd8wvofQAlH/ExVUUOjFAYfRNKsYyfDufvCvoEVSEKeozJfcvfNvJcBhLmP1JN2/gBNW3Cp4M0V7KhlrNV8vvOKJ4aDh2QsO+qTymyLPrVXCMTw2R786Y6M/AOFZVTvh1gK1ffUCtWBW+jDy0SJNRn+tnOVleklz+8nveTzwjsu+qsNT/JtSdqdukZJQoTwMcieSpW2jf8ra7Kzk/oe1g1eZdpzTS1odZJC/zuoWto6PMK1HXsoZMKNtPqn4oP6SSEm+Q1snBzLwPacUr0MmjBYclM603fL80JYoRB0vJJd40ReL3xZdfaXgaDAC4gPefmL7O5xBXJxuBP/zf03dZJozSi6W8y/Nno7u1hOosv63Kz7e76QqSCfVxU93aTnpe3odeZPLCVSLfTue3FzkW7CCkOMtNF6IJs+iAurKSPmR5WCa7qoCaSN8k0y4ogp38fSp1F/ftAQla9f1+Z7pF90z1SQm8l9y7VSAG1d+nP3je9Sy9QFX2XHdMzMLNzbjoLpzLQ9W32grQE6WcUn1f3bYLFu4YHZGCpuku3VM96gr/q9vzPemNCShXpePo3JlT3VYLl3tcxmJn3dWCssL/fD10Xs+Nqst9a7N2XyWtX931F8ruKnK+jHKrTzauBeVcRoI2yOfYXa21yRG/K0mtz9dHeid1j/Yq/KeuW97QZ4LcE4mVq3hJYDFDopCT4mHdUFgLp6jRvSC0A837em2DeDn0TzLvJb4K+c2qM3j2Ct/83iKJf1bqgU1oMABMyvwKSISvsDsgHqHdqnOcbYt+V9SIXgKitkQUsCF6czmSgAoKPSiUKVJJX/e1h2SAqUURMyGx9meijShSu4TVDYM93nzq6Pw/cwtIODq3mZmrhrpxGac7GDKWmxoVqNq5HrXTiRSFIJfkqMkoNDC7Y0PxV+Y3jhUEU2Cv9lA0orIjakJt7B1UEC21tCF2lYSBj8qk2Z2G+8TKXwGYrNaL3jJevJKLDMilEcY/GUrsGcSP6ef224hADAwMDAwMDAwMDAwODa/EfkFPK26vFX+4AAAAASUVORK5CYII=;" vertex="1" parent="1">
          <mxGeometry x="300" y="565" width="80" height="40" as="geometry" />
        </mxCell>
        <mxCell id="T-FzQU9PvqR5m4S88ow1-30" style="edgeStyle=orthogonalEdgeStyle;rounded=0;orthogonalLoop=1;jettySize=auto;html=1;" edge="1" parent="1" source="HHWHie1BE0_L4CsB-OEg-3" target="T-FzQU9PvqR5m4S88ow1-29">
          <mxGeometry relative="1" as="geometry" />
        </mxCell>
      </root>
    </mxGraphModel>
  </diagram>
</mxfile>
